<svg width="445" height="445" viewBox="0 0 445 445" fill="none" xmlns="http://www.w3.org/2000/svg">
<g clip-path="url(#clip0)">
<path d="M92.7939 196.712L278.935 10.848C285.79 3.615 294.35 0 304.632 0C314.914 0 323.474 3.619 330.329 10.848L352.027 32.264C359.071 39.307 362.593 47.868 362.593 57.956C362.593 67.853 359.072 76.516 352.027 83.937L213.274 222.41L352.033 361.168C359.075 368.211 362.597 376.772 362.597 386.861C362.597 396.757 359.076 405.423 352.033 412.841L330.333 434.254C323.29 441.297 314.721 444.818 304.636 444.818C294.547 444.818 285.98 441.297 278.939 434.254L92.7939 248.39C85.7479 240.967 82.2229 232.306 82.2229 222.409C82.2219 212.321 85.7479 203.755 92.7939 196.712Z" fill="black"/>
</g>
<defs>
<clipPath id="clip0">
<rect width="444.819" height="444.819" fill="white" transform="matrix(-1 0 0 1 444.819 0)"/>
</clipPath>
</defs>
</svg>
